<svg height="512" viewBox="0 0 60 60" width="512" xmlns="http://www.w3.org/2000/svg"><g id="Page-1" fill="none" fill-rule="evenodd"><g id="090---Photo-Editing" fill="rgb(0,0,0)" fill-rule="nonzero"><path id="Shape" d="m2 48h42.74l4.444 10.838c.3304296.7150424 1.0497936 1.1695396 1.837445 1.1609054s1.4968794-.4787914 1.811555-1.2009054l5.092-12.419c.0497739-.1201437.0752641-.2489544.075-.379v-23c1.1045695 0 2-.8954305 2-2v-4c0-1.1045695-.8954305-2-2-2v-5c0-1.65685425-1.3431458-3-3-3h-5v-5c0-1.1045695-.8954305-2-2-2h-46c-1.1045695 0-2 .8954305-2 2v44c0 1.1045695.8954305 2 2 2zm49-1c.5522847 0 1-.4477153 1-1-.001295-1.0721781.845094-1.953643 1.9164413-1.9958623 1.0713473-.0422192 1.9844767.7699073 2.0675587 1.8388623l-2.672 6.562c-1.4954922-.505542-3.1154151-.5072982-4.612-.005l-2.688-6.558c.028224-.7123876.4343583-1.3556035 1.065416-1.6873547.6310577-.3317511 1.3911663-.3016364 1.994.079.6028338.3806365.956808 1.0539671.928584 1.7663547 0 .2652165.1053568.5195704.2928932.7071068s.4418903.2928932.7071068.2928932zm.017 11.04-1.553-3.787c1.0070591-.3140437 2.0861672-.3119497 3.092.006zm4.983-15.484c-1.2302708-.7435623-2.7719654-.7412498-4 .006v-12.562c0-.5522847-.4477153-1-1-1s-1 .4477153-1 1v12.562c-1.2280346-.7472498-2.7697292-.7495623-4-.006v-19.556h4v3c0 .5522847.4477153 1 1 1s1-.4477153 1-1v-3h4zm2-21.556h-14v-4h14zm-2-11v5h-10v-5c0-.55228475.4477153-1 1-1h8c.5522847 0 1 .44771525 1 1zm-8-8v5h-1c-1.6568542 0-3 1.34314575-3 3v5c-1.1045695 0-2 .8954305-2 2v4c0 1.1045695.8954305 2 2 2v13h-38c-.55228475 0-1 .4477153-1 1s.44771525 1 1 1h38v8h-42v-14.586l6.962-6.962 8.3 9.217c.3723215.3974323.9942086.4238692 1.3989162.059469s.4434206-.985644.0870838-1.397469l-1.6-1.781 9.882-12 13.217 15.108c.3642219.4124618.9932409.4531711 1.4075898.0910974.4143488-.3620737.458326-.9908728.0984102-1.4070974l-14-16c-.1950876-.2188909-.4747931-.3434473-.768-.342-.2935296.0043386-.5703268.1374353-.757.364l-10.441 12.682-6.044-6.715c-.18346754-.2040283-.44271057-.3237067-.717-.331-.27230206.002944-.53369809.1074311-.733.293l-6.293 6.293v-26.586z"/><path id="Shape" d="m13 16c2.209139 0 4-1.790861 4-4s-1.790861-4-4-4-4 1.790861-4 4 1.790861 4 4 4zm0-6c1.1045695 0 2 .8954305 2 2s-.8954305 2-2 2-2-.8954305-2-2 .8954305-2 2-2z"/><path id="Shape" d="m13 7c.5522847 0 1-.44771525 1-1v-1c0-.55228475-.4477153-1-1-1s-1 .44771525-1 1v1c0 .55228475.4477153 1 1 1z"/><path id="Shape" d="m19 13h1c.5522847 0 1-.4477153 1-1s-.4477153-1-1-1h-1c-.5522847 0-1 .4477153-1 1s.4477153 1 1 1z"/><path id="Shape" d="m13 17c-.5522847 0-1 .4477153-1 1v1c0 .5522847.4477153 1 1 1s1-.4477153 1-1v-1c0-.5522847-.4477153-1-1-1z"/><path id="Shape" d="m6 13h1c.55228475 0 1-.4477153 1-1s-.44771525-1-1-1h-1c-.55228475 0-1 .4477153-1 1s.44771525 1 1 1z"/></g></g></svg>