<svg id="Layer_1" data-name="Layer 1" xmlns="http://www.w3.org/2000/svg" viewBox="0 0 10.14 10.42"><title>up</title><path d="M10.74,5.56,6.23,3.06a.51.51,0,0,0-.48,0L1.26,5.54a.5.5,0,0,0,0,.88L5.77,8.94A.5.5,0,0,0,6,9a.48.48,0,0,0,.24-.06l4.49-2.5a.5.5,0,0,0,0-.88ZM6,7.93,2.53,6,6,4.07,9.47,6Z" transform="translate(-1 -0.58)"/><path d="M6,11a.5.5,0,0,0,.24-.06l4.5-2.5-.48-.88L6,9.93,1.74,7.56l-.48.88,4.5,2.5A.5.5,0,0,0,6,11Zm4-9.26H9V3.25h1V1.74Z" transform="translate(-1 -0.58)"/><polygon points="10.14 1.99 6.8 1.99 8.47 0 10.14 1.99"/><line x1="9" y1="1.36" x2="8" y2="1.36"/><rect x="8" y="2.09" width="1" height="1.4"/></svg>